<mxfile host="www.draw.io" modified="2020-02-27T18:49:57.662Z" agent="Mozilla/5.0 (Macintosh; Intel Mac OS X 10_15_3) AppleWebKit/537.36 (KHTML, like Gecko) Chrome/80.0.3987.106 Safari/537.36" etag="O9R91vbCznduiQSteMty" version="12.7.9" type="github" pages="3">
  <diagram id="QYDGk-V72FldWnktagho" name="Page-1">
    <mxGraphModel dx="1287" dy="833" grid="1" gridSize="10" guides="1" tooltips="1" connect="1" arrows="1" fold="1" page="1" pageScale="1" pageWidth="1000" pageHeight="1000" math="0" shadow="0" extFonts="Computer Modern^https://fonts.googleapis.com/css?family=Computer+Modern">
      <root>
        <mxCell id="0" />
        <mxCell id="1" parent="0" />
        <mxCell id="0RItgT0RM361GnRo36bi-1" value="" style="rounded=0;whiteSpace=wrap;html=1;fillColor=#4285F4;strokeColor=#4285F4;rotation=-60;" vertex="1" parent="1">
          <mxGeometry x="120" y="700" width="120" height="60" as="geometry" />
        </mxCell>
        <mxCell id="0RItgT0RM361GnRo36bi-2" value="&lt;font style=&quot;font-size: 28px&quot;&gt;Goal&lt;/font&gt;" style="ellipse;whiteSpace=wrap;html=1;aspect=fixed;strokeColor=none;fillColor=#FBBC05;fontFamily=Computer Modern;FType=g;" vertex="1" parent="1">
          <mxGeometry x="680" y="160" width="160" height="160" as="geometry" />
        </mxCell>
        <mxCell id="0RItgT0RM361GnRo36bi-3" value="&lt;font style=&quot;font-size: 28px&quot; face=&quot;Computer Modern&quot;&gt;q&lt;sub&gt;init&lt;/sub&gt;&lt;/font&gt;" style="text;html=1;strokeColor=none;fillColor=none;align=center;verticalAlign=middle;whiteSpace=wrap;rounded=0;rotation=0;" vertex="1" parent="1">
          <mxGeometry x="120" y="800" width="75" height="42.16" as="geometry" />
        </mxCell>
      </root>
    </mxGraphModel>
  </diagram>
  <diagram name="Copy of Page-1" id="5P6rIuxxj2ysfOHATAMI">
    <mxGraphModel dx="1287" dy="833" grid="1" gridSize="10" guides="1" tooltips="1" connect="1" arrows="1" fold="1" page="1" pageScale="1" pageWidth="1000" pageHeight="1000" math="0" shadow="0" extFonts="Computer Modern^https://fonts.googleapis.com/css?family=Computer+Modern">
      <root>
        <mxCell id="s80ven71SJYXGM-_vqFk-0" />
        <mxCell id="s80ven71SJYXGM-_vqFk-1" parent="s80ven71SJYXGM-_vqFk-0" />
        <mxCell id="s80ven71SJYXGM-_vqFk-2" value="" style="rounded=0;whiteSpace=wrap;html=1;fillColor=#4285F4;strokeColor=#4285F4;rotation=-60;" vertex="1" parent="s80ven71SJYXGM-_vqFk-1">
          <mxGeometry x="120" y="700" width="120" height="60" as="geometry" />
        </mxCell>
        <mxCell id="s80ven71SJYXGM-_vqFk-3" value="&lt;font style=&quot;font-size: 28px&quot;&gt;Goal&lt;/font&gt;" style="ellipse;whiteSpace=wrap;html=1;aspect=fixed;strokeColor=none;fillColor=#FBBC05;fontFamily=Computer Modern;FType=g;" vertex="1" parent="s80ven71SJYXGM-_vqFk-1">
          <mxGeometry x="680" y="160" width="160" height="160" as="geometry" />
        </mxCell>
        <mxCell id="s80ven71SJYXGM-_vqFk-4" value="&lt;font style=&quot;font-size: 28px&quot; face=&quot;Computer Modern&quot;&gt;q&lt;sub&gt;init&lt;/sub&gt;&lt;br&gt;&lt;font color=&quot;#ea4335&quot;&gt;(q&lt;sub&gt;nearest&lt;/sub&gt;)&lt;/font&gt;&lt;br&gt;&lt;/font&gt;" style="text;html=1;strokeColor=none;fillColor=none;align=center;verticalAlign=middle;whiteSpace=wrap;rounded=0;rotation=0;" vertex="1" parent="s80ven71SJYXGM-_vqFk-1">
          <mxGeometry x="100" y="810" width="120" height="42.16" as="geometry" />
        </mxCell>
        <mxCell id="s80ven71SJYXGM-_vqFk-5" value="" style="rounded=0;whiteSpace=wrap;html=1;strokeColor=none;fillColor=#34A853;" vertex="1" parent="s80ven71SJYXGM-_vqFk-1">
          <mxGeometry x="310" y="360" width="120" height="60" as="geometry" />
        </mxCell>
        <mxCell id="s80ven71SJYXGM-_vqFk-6" value="&lt;font style=&quot;font-size: 28px&quot; face=&quot;Computer Modern&quot;&gt;q&lt;/font&gt;&lt;font style=&quot;font-size: 23.3333px&quot; face=&quot;Computer Modern&quot;&gt;rand&lt;/font&gt;" style="text;html=1;strokeColor=none;fillColor=none;align=center;verticalAlign=middle;whiteSpace=wrap;rounded=0;rotation=0;" vertex="1" parent="s80ven71SJYXGM-_vqFk-1">
          <mxGeometry x="332.5" y="420" width="75" height="42.16" as="geometry" />
        </mxCell>
      </root>
    </mxGraphModel>
  </diagram>
  <diagram name="Copy of Copy of Page-1" id="DtKQS_F5wXIEGFQeM-Vj">
    <mxGraphModel dx="908" dy="588" grid="1" gridSize="10" guides="1" tooltips="1" connect="1" arrows="1" fold="1" page="1" pageScale="1" pageWidth="1000" pageHeight="1000" math="0" shadow="0" extFonts="Computer Modern^https://fonts.googleapis.com/css?family=Computer+Modern">
      <root>
        <mxCell id="m7Z9NFHq05asAqob4or9-0" />
        <mxCell id="m7Z9NFHq05asAqob4or9-1" parent="m7Z9NFHq05asAqob4or9-0" />
        <mxCell id="m7Z9NFHq05asAqob4or9-2" value="" style="rounded=0;whiteSpace=wrap;html=1;fillColor=#4285F4;strokeColor=#4285F4;rotation=-60;" vertex="1" parent="m7Z9NFHq05asAqob4or9-1">
          <mxGeometry x="120" y="700" width="120" height="60" as="geometry" />
        </mxCell>
        <mxCell id="m7Z9NFHq05asAqob4or9-3" value="&lt;font style=&quot;font-size: 28px&quot;&gt;Goal&lt;/font&gt;" style="ellipse;whiteSpace=wrap;html=1;aspect=fixed;strokeColor=none;fillColor=#FBBC05;fontFamily=Computer Modern;FType=g;" vertex="1" parent="m7Z9NFHq05asAqob4or9-1">
          <mxGeometry x="680" y="160" width="160" height="160" as="geometry" />
        </mxCell>
        <mxCell id="m7Z9NFHq05asAqob4or9-4" value="&lt;font style=&quot;font-size: 28px&quot; face=&quot;Computer Modern&quot;&gt;q&lt;sub&gt;init&lt;/sub&gt;&lt;br&gt;&lt;font color=&quot;#ea4335&quot;&gt;(q&lt;sub&gt;nearest&lt;/sub&gt;)&lt;/font&gt;&lt;br&gt;&lt;/font&gt;" style="text;html=1;strokeColor=none;fillColor=none;align=center;verticalAlign=middle;whiteSpace=wrap;rounded=0;rotation=0;" vertex="1" parent="m7Z9NFHq05asAqob4or9-1">
          <mxGeometry x="100" y="810" width="120" height="42.16" as="geometry" />
        </mxCell>
        <mxCell id="m7Z9NFHq05asAqob4or9-5" value="" style="rounded=0;whiteSpace=wrap;html=1;strokeColor=none;fillColor=#34A853;shadow=0;glass=0;comic=0;opacity=40;" vertex="1" parent="m7Z9NFHq05asAqob4or9-1">
          <mxGeometry x="310" y="360" width="120" height="60" as="geometry" />
        </mxCell>
        <mxCell id="m7Z9NFHq05asAqob4or9-6" value="&lt;font style=&quot;font-size: 28px&quot; face=&quot;Computer Modern&quot;&gt;q&lt;/font&gt;&lt;font style=&quot;font-size: 23.3333px&quot; face=&quot;Computer Modern&quot;&gt;rand&lt;/font&gt;" style="text;html=1;strokeColor=none;fillColor=none;align=center;verticalAlign=middle;whiteSpace=wrap;rounded=0;rotation=0;opacity=80;textOpacity=30;" vertex="1" parent="m7Z9NFHq05asAqob4or9-1">
          <mxGeometry x="332.5" y="420" width="75" height="42.16" as="geometry" />
        </mxCell>
        <mxCell id="m7Z9NFHq05asAqob4or9-8" value="" style="rounded=0;whiteSpace=wrap;html=1;strokeColor=none;fillColor=#34A853;" vertex="1" parent="m7Z9NFHq05asAqob4or9-1">
          <mxGeometry x="240" y="480" width="120" height="60" as="geometry" />
        </mxCell>
        <mxCell id="m7Z9NFHq05asAqob4or9-9" value="&lt;font style=&quot;font-size: 28px&quot; face=&quot;Computer Modern&quot;&gt;q&lt;/font&gt;&lt;font style=&quot;font-size: 23.3333px&quot; face=&quot;Computer Modern&quot;&gt;new&lt;/font&gt;" style="text;html=1;strokeColor=none;fillColor=none;align=center;verticalAlign=middle;whiteSpace=wrap;rounded=0;rotation=0;" vertex="1" parent="m7Z9NFHq05asAqob4or9-1">
          <mxGeometry x="262.5" y="540" width="75" height="42.16" as="geometry" />
        </mxCell>
        <mxCell id="m7Z9NFHq05asAqob4or9-10" value="" style="endArrow=none;html=1;strokeColor=#EA4335;strokeWidth=3;" edge="1" parent="m7Z9NFHq05asAqob4or9-1">
          <mxGeometry width="50" height="50" relative="1" as="geometry">
            <mxPoint x="170" y="740" as="sourcePoint" />
            <mxPoint x="300" y="510" as="targetPoint" />
          </mxGeometry>
        </mxCell>
        <mxCell id="m7Z9NFHq05asAqob4or9-12" value="&lt;font style=&quot;font-size: 28px&quot; face=&quot;Computer Modern&quot;&gt;&lt;br&gt;&lt;/font&gt;" style="text;html=1;strokeColor=none;fillColor=none;align=center;verticalAlign=middle;whiteSpace=wrap;rounded=0;rotation=0;" vertex="1" parent="m7Z9NFHq05asAqob4or9-1">
          <mxGeometry x="120" y="560" width="120" height="42.16" as="geometry" />
        </mxCell>
      </root>
    </mxGraphModel>
  </diagram>
</mxfile>
